<mxfile host="app.diagrams.net" modified="2022-08-03T16:01:08.956Z" agent="5.0 (Macintosh; Intel Mac OS X 10_15_7) AppleWebKit/537.36 (KHTML, like Gecko) Chrome/103.0.0.0 Safari/537.36" etag="yYxx55FZyaQzRy7lYEUb" version="20.0.3" type="github">
  <diagram id="rsHQtJwCqYtkyzhS6A2Q" name="Page-1">
    <mxGraphModel dx="1940" dy="1762" grid="1" gridSize="10" guides="1" tooltips="1" connect="1" arrows="1" fold="1" page="1" pageScale="1" pageWidth="827" pageHeight="1169" math="0" shadow="0">
      <root>
        <mxCell id="0" />
        <mxCell id="1" parent="0" />
        <mxCell id="LNZX4o1E4JshtJrWb8Li-1" value="1" style="rounded=0;whiteSpace=wrap;html=1;sketch=1;fontFamily=Comic Sans MS;" vertex="1" parent="1">
          <mxGeometry x="160" y="80" width="40" height="40" as="geometry" />
        </mxCell>
        <mxCell id="LNZX4o1E4JshtJrWb8Li-33" value="" style="rounded=0;whiteSpace=wrap;html=1;sketch=1;fontFamily=Comic Sans MS;" vertex="1" parent="1">
          <mxGeometry x="200" y="80" width="40" height="40" as="geometry" />
        </mxCell>
        <mxCell id="LNZX4o1E4JshtJrWb8Li-34" value="2" style="rounded=0;whiteSpace=wrap;html=1;sketch=1;fontFamily=Comic Sans MS;" vertex="1" parent="1">
          <mxGeometry x="320" y="80" width="40" height="40" as="geometry" />
        </mxCell>
        <mxCell id="LNZX4o1E4JshtJrWb8Li-35" value="" style="rounded=0;whiteSpace=wrap;html=1;sketch=1;fontFamily=Comic Sans MS;" vertex="1" parent="1">
          <mxGeometry x="360" y="80" width="40" height="40" as="geometry" />
        </mxCell>
        <mxCell id="LNZX4o1E4JshtJrWb8Li-36" value="3" style="rounded=0;whiteSpace=wrap;html=1;sketch=1;fontFamily=Comic Sans MS;" vertex="1" parent="1">
          <mxGeometry x="480" y="80" width="40" height="40" as="geometry" />
        </mxCell>
        <mxCell id="LNZX4o1E4JshtJrWb8Li-37" value="" style="rounded=0;whiteSpace=wrap;html=1;sketch=1;fontFamily=Comic Sans MS;" vertex="1" parent="1">
          <mxGeometry x="520" y="80" width="40" height="40" as="geometry" />
        </mxCell>
        <mxCell id="LNZX4o1E4JshtJrWb8Li-38" value="4" style="rounded=0;whiteSpace=wrap;html=1;sketch=1;fontFamily=Comic Sans MS;" vertex="1" parent="1">
          <mxGeometry x="640" y="80" width="40" height="40" as="geometry" />
        </mxCell>
        <mxCell id="LNZX4o1E4JshtJrWb8Li-39" value="" style="rounded=0;whiteSpace=wrap;html=1;sketch=1;fontFamily=Comic Sans MS;" vertex="1" parent="1">
          <mxGeometry x="680" y="80" width="40" height="40" as="geometry" />
        </mxCell>
        <mxCell id="LNZX4o1E4JshtJrWb8Li-40" value="" style="ellipse;whiteSpace=wrap;html=1;aspect=fixed;fontFamily=Comic Sans MS;labelBackgroundColor=#000000;fillColor=#000000;sketch=1;" vertex="1" parent="1">
          <mxGeometry x="216" y="95" width="10" height="10" as="geometry" />
        </mxCell>
        <mxCell id="LNZX4o1E4JshtJrWb8Li-41" value="" style="endArrow=classic;html=1;rounded=0;sketch=1;fontFamily=Comic Sans MS;" edge="1" parent="1" source="LNZX4o1E4JshtJrWb8Li-40" target="LNZX4o1E4JshtJrWb8Li-34">
          <mxGeometry width="50" height="50" relative="1" as="geometry">
            <mxPoint x="410" y="290" as="sourcePoint" />
            <mxPoint x="460" y="240" as="targetPoint" />
          </mxGeometry>
        </mxCell>
        <mxCell id="LNZX4o1E4JshtJrWb8Li-42" value="" style="ellipse;whiteSpace=wrap;html=1;aspect=fixed;fontFamily=Comic Sans MS;labelBackgroundColor=#000000;fillColor=#000000;sketch=1;" vertex="1" parent="1">
          <mxGeometry x="376" y="95" width="10" height="10" as="geometry" />
        </mxCell>
        <mxCell id="LNZX4o1E4JshtJrWb8Li-43" value="" style="endArrow=classic;html=1;rounded=0;sketch=1;fontFamily=Comic Sans MS;" edge="1" parent="1" source="LNZX4o1E4JshtJrWb8Li-42">
          <mxGeometry width="50" height="50" relative="1" as="geometry">
            <mxPoint x="570" y="290" as="sourcePoint" />
            <mxPoint x="480" y="100" as="targetPoint" />
          </mxGeometry>
        </mxCell>
        <mxCell id="LNZX4o1E4JshtJrWb8Li-44" value="" style="ellipse;whiteSpace=wrap;html=1;aspect=fixed;fontFamily=Comic Sans MS;labelBackgroundColor=#000000;fillColor=#000000;sketch=1;" vertex="1" parent="1">
          <mxGeometry x="535" y="95" width="10" height="10" as="geometry" />
        </mxCell>
        <mxCell id="LNZX4o1E4JshtJrWb8Li-45" value="" style="endArrow=classic;html=1;rounded=0;sketch=1;fontFamily=Comic Sans MS;" edge="1" parent="1" source="LNZX4o1E4JshtJrWb8Li-44" target="LNZX4o1E4JshtJrWb8Li-38">
          <mxGeometry width="50" height="50" relative="1" as="geometry">
            <mxPoint x="580" y="300" as="sourcePoint" />
            <mxPoint x="489.9999999999998" y="110" as="targetPoint" />
          </mxGeometry>
        </mxCell>
        <mxCell id="LNZX4o1E4JshtJrWb8Li-52" value="" style="ellipse;whiteSpace=wrap;html=1;aspect=fixed;fontFamily=Comic Sans MS;labelBackgroundColor=#000000;fillColor=#000000;sketch=1;" vertex="1" parent="1">
          <mxGeometry x="695" y="95" width="10" height="10" as="geometry" />
        </mxCell>
        <mxCell id="LNZX4o1E4JshtJrWb8Li-54" value="node *head" style="text;html=1;strokeColor=none;fillColor=none;align=center;verticalAlign=middle;whiteSpace=wrap;rounded=0;labelBackgroundColor=none;sketch=1;fontFamily=Comic Sans MS;" vertex="1" parent="1">
          <mxGeometry x="20" y="60" width="80" height="15" as="geometry" />
        </mxCell>
        <mxCell id="LNZX4o1E4JshtJrWb8Li-56" value="" style="rounded=0;whiteSpace=wrap;html=1;sketch=1;fontFamily=Comic Sans MS;" vertex="1" parent="1">
          <mxGeometry x="40" y="80" width="40" height="40" as="geometry" />
        </mxCell>
        <mxCell id="LNZX4o1E4JshtJrWb8Li-57" value="" style="ellipse;whiteSpace=wrap;html=1;aspect=fixed;fontFamily=Comic Sans MS;labelBackgroundColor=#000000;fillColor=#000000;sketch=1;" vertex="1" parent="1">
          <mxGeometry x="56" y="95" width="10" height="10" as="geometry" />
        </mxCell>
        <mxCell id="LNZX4o1E4JshtJrWb8Li-58" value="" style="endArrow=classic;html=1;rounded=0;sketch=1;fontFamily=Comic Sans MS;" edge="1" parent="1" source="LNZX4o1E4JshtJrWb8Li-57">
          <mxGeometry width="50" height="50" relative="1" as="geometry">
            <mxPoint x="250" y="290" as="sourcePoint" />
            <mxPoint x="160" y="100" as="targetPoint" />
          </mxGeometry>
        </mxCell>
        <mxCell id="LNZX4o1E4JshtJrWb8Li-59" value="1" style="rounded=0;whiteSpace=wrap;html=1;sketch=1;fontFamily=Comic Sans MS;" vertex="1" parent="1">
          <mxGeometry x="135" y="840" width="40" height="40" as="geometry" />
        </mxCell>
        <mxCell id="LNZX4o1E4JshtJrWb8Li-60" value="" style="rounded=0;whiteSpace=wrap;html=1;sketch=1;fontFamily=Comic Sans MS;" vertex="1" parent="1">
          <mxGeometry x="175" y="840" width="40" height="40" as="geometry" />
        </mxCell>
        <mxCell id="LNZX4o1E4JshtJrWb8Li-61" value="2" style="rounded=0;whiteSpace=wrap;html=1;sketch=1;fontFamily=Comic Sans MS;" vertex="1" parent="1">
          <mxGeometry x="295" y="840" width="40" height="40" as="geometry" />
        </mxCell>
        <mxCell id="LNZX4o1E4JshtJrWb8Li-62" value="" style="rounded=0;whiteSpace=wrap;html=1;sketch=1;fontFamily=Comic Sans MS;" vertex="1" parent="1">
          <mxGeometry x="335" y="840" width="40" height="40" as="geometry" />
        </mxCell>
        <mxCell id="LNZX4o1E4JshtJrWb8Li-63" value="3" style="rounded=0;whiteSpace=wrap;html=1;sketch=1;fontFamily=Comic Sans MS;" vertex="1" parent="1">
          <mxGeometry x="455" y="840" width="40" height="40" as="geometry" />
        </mxCell>
        <mxCell id="LNZX4o1E4JshtJrWb8Li-64" value="" style="rounded=0;whiteSpace=wrap;html=1;sketch=1;fontFamily=Comic Sans MS;" vertex="1" parent="1">
          <mxGeometry x="495" y="840" width="40" height="40" as="geometry" />
        </mxCell>
        <mxCell id="LNZX4o1E4JshtJrWb8Li-65" value="4" style="rounded=0;whiteSpace=wrap;html=1;sketch=1;fontFamily=Comic Sans MS;" vertex="1" parent="1">
          <mxGeometry x="615" y="840" width="40" height="40" as="geometry" />
        </mxCell>
        <mxCell id="LNZX4o1E4JshtJrWb8Li-66" value="" style="rounded=0;whiteSpace=wrap;html=1;sketch=1;fontFamily=Comic Sans MS;" vertex="1" parent="1">
          <mxGeometry x="655" y="840" width="40" height="40" as="geometry" />
        </mxCell>
        <mxCell id="LNZX4o1E4JshtJrWb8Li-67" value="" style="ellipse;whiteSpace=wrap;html=1;aspect=fixed;fontFamily=Comic Sans MS;labelBackgroundColor=#000000;fillColor=#000000;sketch=1;" vertex="1" parent="1">
          <mxGeometry x="191" y="855" width="10" height="10" as="geometry" />
        </mxCell>
        <mxCell id="LNZX4o1E4JshtJrWb8Li-68" value="" style="endArrow=classic;html=1;rounded=0;sketch=1;fontFamily=Comic Sans MS;edgeStyle=orthogonalEdgeStyle;entryX=0.5;entryY=0;entryDx=0;entryDy=0;" edge="1" parent="1" source="LNZX4o1E4JshtJrWb8Li-67" target="LNZX4o1E4JshtJrWb8Li-63">
          <mxGeometry width="50" height="50" relative="1" as="geometry">
            <mxPoint x="385" y="1050" as="sourcePoint" />
            <mxPoint x="455" y="860" as="targetPoint" />
            <Array as="points">
              <mxPoint x="196" y="790" />
              <mxPoint x="475" y="790" />
            </Array>
          </mxGeometry>
        </mxCell>
        <mxCell id="LNZX4o1E4JshtJrWb8Li-69" value="" style="ellipse;whiteSpace=wrap;html=1;aspect=fixed;fontFamily=Comic Sans MS;labelBackgroundColor=#000000;fillColor=#000000;sketch=1;" vertex="1" parent="1">
          <mxGeometry x="351" y="855" width="10" height="10" as="geometry" />
        </mxCell>
        <mxCell id="LNZX4o1E4JshtJrWb8Li-70" value="" style="endArrow=classic;html=1;rounded=0;sketch=1;fontFamily=Comic Sans MS;edgeStyle=orthogonalEdgeStyle;entryX=0.5;entryY=1;entryDx=0;entryDy=0;" edge="1" parent="1" source="LNZX4o1E4JshtJrWb8Li-69" target="LNZX4o1E4JshtJrWb8Li-60">
          <mxGeometry width="50" height="50" relative="1" as="geometry">
            <mxPoint x="545" y="1050" as="sourcePoint" />
            <mxPoint x="185" y="970" as="targetPoint" />
            <Array as="points">
              <mxPoint x="356" y="950" />
              <mxPoint x="195" y="950" />
            </Array>
          </mxGeometry>
        </mxCell>
        <mxCell id="LNZX4o1E4JshtJrWb8Li-71" value="" style="ellipse;whiteSpace=wrap;html=1;aspect=fixed;fontFamily=Comic Sans MS;labelBackgroundColor=#000000;fillColor=#000000;sketch=1;" vertex="1" parent="1">
          <mxGeometry x="510" y="855" width="10" height="10" as="geometry" />
        </mxCell>
        <mxCell id="LNZX4o1E4JshtJrWb8Li-72" value="" style="endArrow=classic;html=1;rounded=0;sketch=1;fontFamily=Comic Sans MS;" edge="1" parent="1" source="LNZX4o1E4JshtJrWb8Li-71" target="LNZX4o1E4JshtJrWb8Li-65">
          <mxGeometry width="50" height="50" relative="1" as="geometry">
            <mxPoint x="555" y="1060" as="sourcePoint" />
            <mxPoint x="464.9999999999998" y="870" as="targetPoint" />
          </mxGeometry>
        </mxCell>
        <mxCell id="LNZX4o1E4JshtJrWb8Li-73" value="" style="ellipse;whiteSpace=wrap;html=1;aspect=fixed;fontFamily=Comic Sans MS;labelBackgroundColor=#000000;fillColor=#000000;sketch=1;" vertex="1" parent="1">
          <mxGeometry x="670" y="855" width="10" height="10" as="geometry" />
        </mxCell>
        <mxCell id="LNZX4o1E4JshtJrWb8Li-74" value="head" style="text;html=1;strokeColor=none;fillColor=none;align=center;verticalAlign=middle;whiteSpace=wrap;rounded=0;labelBackgroundColor=none;sketch=1;fontFamily=Comic Sans MS;" vertex="1" parent="1">
          <mxGeometry x="6" y="891" width="60" height="15" as="geometry" />
        </mxCell>
        <mxCell id="LNZX4o1E4JshtJrWb8Li-75" value="" style="rounded=0;whiteSpace=wrap;html=1;sketch=1;fontFamily=Comic Sans MS;" vertex="1" parent="1">
          <mxGeometry x="15" y="840" width="40" height="40" as="geometry" />
        </mxCell>
        <mxCell id="LNZX4o1E4JshtJrWb8Li-76" value="" style="ellipse;whiteSpace=wrap;html=1;aspect=fixed;fontFamily=Comic Sans MS;labelBackgroundColor=#000000;fillColor=#000000;sketch=1;" vertex="1" parent="1">
          <mxGeometry x="31" y="855" width="10" height="10" as="geometry" />
        </mxCell>
        <mxCell id="LNZX4o1E4JshtJrWb8Li-77" value="" style="endArrow=classic;html=1;rounded=0;sketch=1;fontFamily=Comic Sans MS;entryX=0.5;entryY=1;entryDx=0;entryDy=0;edgeStyle=orthogonalEdgeStyle;" edge="1" parent="1" source="LNZX4o1E4JshtJrWb8Li-76" target="LNZX4o1E4JshtJrWb8Li-61">
          <mxGeometry width="50" height="50" relative="1" as="geometry">
            <mxPoint x="225" y="1050" as="sourcePoint" />
            <mxPoint x="135" y="860" as="targetPoint" />
            <Array as="points">
              <mxPoint x="95" y="860" />
              <mxPoint x="95" y="980" />
              <mxPoint x="315" y="980" />
            </Array>
          </mxGeometry>
        </mxCell>
        <mxCell id="LNZX4o1E4JshtJrWb8Li-79" value="" style="rounded=0;whiteSpace=wrap;html=1;sketch=1;fontFamily=Comic Sans MS;strokeColor=#FF3333;strokeWidth=3;" vertex="1" parent="1">
          <mxGeometry x="40" y="200" width="40" height="40" as="geometry" />
        </mxCell>
        <mxCell id="LNZX4o1E4JshtJrWb8Li-80" value="" style="ellipse;whiteSpace=wrap;html=1;aspect=fixed;fontFamily=Comic Sans MS;labelBackgroundColor=#000000;fillColor=#FF3333;sketch=1;strokeColor=#FF3333;strokeWidth=3;" vertex="1" parent="1">
          <mxGeometry x="55" y="220" width="10" height="10" as="geometry" />
        </mxCell>
        <mxCell id="LNZX4o1E4JshtJrWb8Li-82" value="" style="edgeStyle=orthogonalEdgeStyle;rounded=0;sketch=1;orthogonalLoop=1;jettySize=auto;html=1;fontFamily=Comic Sans MS;entryX=0.5;entryY=1;entryDx=0;entryDy=0;strokeColor=#FF3333;strokeWidth=3;" edge="1" parent="1" target="LNZX4o1E4JshtJrWb8Li-56">
          <mxGeometry relative="1" as="geometry">
            <mxPoint x="60" y="220" as="sourcePoint" />
          </mxGeometry>
        </mxCell>
        <mxCell id="LNZX4o1E4JshtJrWb8Li-84" value="&lt;font size=&quot;1&quot; color=&quot;#ff3333&quot;&gt;&lt;b style=&quot;font-size: 18px;&quot;&gt;node **p = &amp;amp;head&lt;/b&gt;&lt;/font&gt;" style="text;html=1;strokeColor=none;fillColor=none;align=left;verticalAlign=middle;whiteSpace=wrap;rounded=0;labelBackgroundColor=none;sketch=1;fontFamily=Comic Sans MS;" vertex="1" parent="1">
          <mxGeometry x="-270" y="220" width="164" height="30" as="geometry" />
        </mxCell>
        <mxCell id="LNZX4o1E4JshtJrWb8Li-85" value="node *first = *p;&lt;br&gt;node *second = (*p)-&amp;gt;next;" style="text;html=1;strokeColor=none;fillColor=none;align=left;verticalAlign=middle;whiteSpace=wrap;rounded=0;labelBackgroundColor=none;sketch=1;fontFamily=Comic Sans MS;fontSize=18;fontColor=#000000;" vertex="1" parent="1">
          <mxGeometry x="-291" y="445" width="364" height="80" as="geometry" />
        </mxCell>
        <mxCell id="LNZX4o1E4JshtJrWb8Li-101" value="1" style="rounded=0;whiteSpace=wrap;html=1;sketch=1;fontFamily=Comic Sans MS;" vertex="1" parent="1">
          <mxGeometry x="160" y="-120" width="40" height="40" as="geometry" />
        </mxCell>
        <mxCell id="LNZX4o1E4JshtJrWb8Li-102" value="" style="rounded=0;whiteSpace=wrap;html=1;sketch=1;fontFamily=Comic Sans MS;" vertex="1" parent="1">
          <mxGeometry x="200" y="-120" width="40" height="40" as="geometry" />
        </mxCell>
        <mxCell id="LNZX4o1E4JshtJrWb8Li-103" value="2" style="rounded=0;whiteSpace=wrap;html=1;sketch=1;fontFamily=Comic Sans MS;" vertex="1" parent="1">
          <mxGeometry x="320" y="-120" width="40" height="40" as="geometry" />
        </mxCell>
        <mxCell id="LNZX4o1E4JshtJrWb8Li-104" value="" style="rounded=0;whiteSpace=wrap;html=1;sketch=1;fontFamily=Comic Sans MS;" vertex="1" parent="1">
          <mxGeometry x="360" y="-120" width="40" height="40" as="geometry" />
        </mxCell>
        <mxCell id="LNZX4o1E4JshtJrWb8Li-105" value="3" style="rounded=0;whiteSpace=wrap;html=1;sketch=1;fontFamily=Comic Sans MS;" vertex="1" parent="1">
          <mxGeometry x="480" y="-120" width="40" height="40" as="geometry" />
        </mxCell>
        <mxCell id="LNZX4o1E4JshtJrWb8Li-106" value="" style="rounded=0;whiteSpace=wrap;html=1;sketch=1;fontFamily=Comic Sans MS;" vertex="1" parent="1">
          <mxGeometry x="520" y="-120" width="40" height="40" as="geometry" />
        </mxCell>
        <mxCell id="LNZX4o1E4JshtJrWb8Li-107" value="4" style="rounded=0;whiteSpace=wrap;html=1;sketch=1;fontFamily=Comic Sans MS;" vertex="1" parent="1">
          <mxGeometry x="640" y="-120" width="40" height="40" as="geometry" />
        </mxCell>
        <mxCell id="LNZX4o1E4JshtJrWb8Li-108" value="" style="rounded=0;whiteSpace=wrap;html=1;sketch=1;fontFamily=Comic Sans MS;" vertex="1" parent="1">
          <mxGeometry x="680" y="-120" width="40" height="40" as="geometry" />
        </mxCell>
        <mxCell id="LNZX4o1E4JshtJrWb8Li-109" value="" style="ellipse;whiteSpace=wrap;html=1;aspect=fixed;fontFamily=Comic Sans MS;labelBackgroundColor=#000000;fillColor=#000000;sketch=1;" vertex="1" parent="1">
          <mxGeometry x="216" y="-105" width="10" height="10" as="geometry" />
        </mxCell>
        <mxCell id="LNZX4o1E4JshtJrWb8Li-110" value="" style="endArrow=classic;html=1;rounded=0;sketch=1;fontFamily=Comic Sans MS;" edge="1" parent="1" source="LNZX4o1E4JshtJrWb8Li-109" target="LNZX4o1E4JshtJrWb8Li-103">
          <mxGeometry width="50" height="50" relative="1" as="geometry">
            <mxPoint x="410" y="90" as="sourcePoint" />
            <mxPoint x="460" y="40" as="targetPoint" />
          </mxGeometry>
        </mxCell>
        <mxCell id="LNZX4o1E4JshtJrWb8Li-111" value="" style="ellipse;whiteSpace=wrap;html=1;aspect=fixed;fontFamily=Comic Sans MS;labelBackgroundColor=#000000;fillColor=#000000;sketch=1;" vertex="1" parent="1">
          <mxGeometry x="376" y="-105" width="10" height="10" as="geometry" />
        </mxCell>
        <mxCell id="LNZX4o1E4JshtJrWb8Li-112" value="" style="endArrow=classic;html=1;rounded=0;sketch=1;fontFamily=Comic Sans MS;" edge="1" parent="1" source="LNZX4o1E4JshtJrWb8Li-111">
          <mxGeometry width="50" height="50" relative="1" as="geometry">
            <mxPoint x="570" y="90" as="sourcePoint" />
            <mxPoint x="480" y="-100" as="targetPoint" />
          </mxGeometry>
        </mxCell>
        <mxCell id="LNZX4o1E4JshtJrWb8Li-113" value="" style="ellipse;whiteSpace=wrap;html=1;aspect=fixed;fontFamily=Comic Sans MS;labelBackgroundColor=#000000;fillColor=#000000;sketch=1;" vertex="1" parent="1">
          <mxGeometry x="535" y="-105" width="10" height="10" as="geometry" />
        </mxCell>
        <mxCell id="LNZX4o1E4JshtJrWb8Li-114" value="" style="endArrow=classic;html=1;rounded=0;sketch=1;fontFamily=Comic Sans MS;" edge="1" parent="1" source="LNZX4o1E4JshtJrWb8Li-113" target="LNZX4o1E4JshtJrWb8Li-107">
          <mxGeometry width="50" height="50" relative="1" as="geometry">
            <mxPoint x="580" y="100" as="sourcePoint" />
            <mxPoint x="489.9999999999998" y="-90" as="targetPoint" />
          </mxGeometry>
        </mxCell>
        <mxCell id="LNZX4o1E4JshtJrWb8Li-115" value="" style="ellipse;whiteSpace=wrap;html=1;aspect=fixed;fontFamily=Comic Sans MS;labelBackgroundColor=#000000;fillColor=#000000;sketch=1;" vertex="1" parent="1">
          <mxGeometry x="695" y="-105" width="10" height="10" as="geometry" />
        </mxCell>
        <mxCell id="LNZX4o1E4JshtJrWb8Li-116" value="node *head" style="text;html=1;strokeColor=none;fillColor=none;align=center;verticalAlign=middle;whiteSpace=wrap;rounded=0;labelBackgroundColor=none;sketch=1;fontFamily=Comic Sans MS;" vertex="1" parent="1">
          <mxGeometry x="20" y="-140" width="80" height="15" as="geometry" />
        </mxCell>
        <mxCell id="LNZX4o1E4JshtJrWb8Li-117" value="" style="rounded=0;whiteSpace=wrap;html=1;sketch=1;fontFamily=Comic Sans MS;" vertex="1" parent="1">
          <mxGeometry x="40" y="-120" width="40" height="40" as="geometry" />
        </mxCell>
        <mxCell id="LNZX4o1E4JshtJrWb8Li-118" value="" style="ellipse;whiteSpace=wrap;html=1;aspect=fixed;fontFamily=Comic Sans MS;labelBackgroundColor=#000000;fillColor=#000000;sketch=1;" vertex="1" parent="1">
          <mxGeometry x="56" y="-105" width="10" height="10" as="geometry" />
        </mxCell>
        <mxCell id="LNZX4o1E4JshtJrWb8Li-119" value="" style="endArrow=classic;html=1;rounded=0;sketch=1;fontFamily=Comic Sans MS;" edge="1" parent="1" source="LNZX4o1E4JshtJrWb8Li-118">
          <mxGeometry width="50" height="50" relative="1" as="geometry">
            <mxPoint x="250" y="90" as="sourcePoint" />
            <mxPoint x="160" y="-100" as="targetPoint" />
          </mxGeometry>
        </mxCell>
        <mxCell id="LNZX4o1E4JshtJrWb8Li-120" value="&lt;font size=&quot;1&quot; color=&quot;#ff3333&quot;&gt;&lt;b style=&quot;font-size: 18px;&quot;&gt;p&lt;/b&gt;&lt;/font&gt;" style="text;html=1;strokeColor=none;fillColor=none;align=left;verticalAlign=middle;whiteSpace=wrap;rounded=0;labelBackgroundColor=none;sketch=1;fontFamily=Comic Sans MS;" vertex="1" parent="1">
          <mxGeometry x="46" y="375" width="24" height="30" as="geometry" />
        </mxCell>
        <mxCell id="LNZX4o1E4JshtJrWb8Li-121" value="1" style="rounded=0;whiteSpace=wrap;html=1;sketch=1;fontFamily=Comic Sans MS;" vertex="1" parent="1">
          <mxGeometry x="160" y="385" width="40" height="40" as="geometry" />
        </mxCell>
        <mxCell id="LNZX4o1E4JshtJrWb8Li-122" value="" style="rounded=0;whiteSpace=wrap;html=1;sketch=1;fontFamily=Comic Sans MS;" vertex="1" parent="1">
          <mxGeometry x="200" y="385" width="40" height="40" as="geometry" />
        </mxCell>
        <mxCell id="LNZX4o1E4JshtJrWb8Li-123" value="2" style="rounded=0;whiteSpace=wrap;html=1;sketch=1;fontFamily=Comic Sans MS;" vertex="1" parent="1">
          <mxGeometry x="320" y="385" width="40" height="40" as="geometry" />
        </mxCell>
        <mxCell id="LNZX4o1E4JshtJrWb8Li-124" value="" style="rounded=0;whiteSpace=wrap;html=1;sketch=1;fontFamily=Comic Sans MS;" vertex="1" parent="1">
          <mxGeometry x="360" y="385" width="40" height="40" as="geometry" />
        </mxCell>
        <mxCell id="LNZX4o1E4JshtJrWb8Li-125" value="3" style="rounded=0;whiteSpace=wrap;html=1;sketch=1;fontFamily=Comic Sans MS;" vertex="1" parent="1">
          <mxGeometry x="480" y="385" width="40" height="40" as="geometry" />
        </mxCell>
        <mxCell id="LNZX4o1E4JshtJrWb8Li-126" value="" style="rounded=0;whiteSpace=wrap;html=1;sketch=1;fontFamily=Comic Sans MS;" vertex="1" parent="1">
          <mxGeometry x="520" y="385" width="40" height="40" as="geometry" />
        </mxCell>
        <mxCell id="LNZX4o1E4JshtJrWb8Li-127" value="4" style="rounded=0;whiteSpace=wrap;html=1;sketch=1;fontFamily=Comic Sans MS;" vertex="1" parent="1">
          <mxGeometry x="640" y="385" width="40" height="40" as="geometry" />
        </mxCell>
        <mxCell id="LNZX4o1E4JshtJrWb8Li-128" value="" style="rounded=0;whiteSpace=wrap;html=1;sketch=1;fontFamily=Comic Sans MS;" vertex="1" parent="1">
          <mxGeometry x="680" y="385" width="40" height="40" as="geometry" />
        </mxCell>
        <mxCell id="LNZX4o1E4JshtJrWb8Li-129" value="" style="ellipse;whiteSpace=wrap;html=1;aspect=fixed;fontFamily=Comic Sans MS;labelBackgroundColor=#000000;fillColor=#000000;sketch=1;" vertex="1" parent="1">
          <mxGeometry x="216" y="400" width="10" height="10" as="geometry" />
        </mxCell>
        <mxCell id="LNZX4o1E4JshtJrWb8Li-130" value="" style="endArrow=classic;html=1;rounded=0;sketch=1;fontFamily=Comic Sans MS;" edge="1" parent="1" source="LNZX4o1E4JshtJrWb8Li-129" target="LNZX4o1E4JshtJrWb8Li-123">
          <mxGeometry width="50" height="50" relative="1" as="geometry">
            <mxPoint x="410" y="595" as="sourcePoint" />
            <mxPoint x="460" y="545" as="targetPoint" />
          </mxGeometry>
        </mxCell>
        <mxCell id="LNZX4o1E4JshtJrWb8Li-131" value="" style="ellipse;whiteSpace=wrap;html=1;aspect=fixed;fontFamily=Comic Sans MS;labelBackgroundColor=#000000;fillColor=#000000;sketch=1;" vertex="1" parent="1">
          <mxGeometry x="376" y="400" width="10" height="10" as="geometry" />
        </mxCell>
        <mxCell id="LNZX4o1E4JshtJrWb8Li-132" value="" style="endArrow=classic;html=1;rounded=0;sketch=1;fontFamily=Comic Sans MS;" edge="1" parent="1" source="LNZX4o1E4JshtJrWb8Li-131">
          <mxGeometry width="50" height="50" relative="1" as="geometry">
            <mxPoint x="570" y="595" as="sourcePoint" />
            <mxPoint x="480" y="405" as="targetPoint" />
          </mxGeometry>
        </mxCell>
        <mxCell id="LNZX4o1E4JshtJrWb8Li-133" value="" style="ellipse;whiteSpace=wrap;html=1;aspect=fixed;fontFamily=Comic Sans MS;labelBackgroundColor=#000000;fillColor=#000000;sketch=1;" vertex="1" parent="1">
          <mxGeometry x="535" y="400" width="10" height="10" as="geometry" />
        </mxCell>
        <mxCell id="LNZX4o1E4JshtJrWb8Li-134" value="" style="endArrow=classic;html=1;rounded=0;sketch=1;fontFamily=Comic Sans MS;" edge="1" parent="1" source="LNZX4o1E4JshtJrWb8Li-133" target="LNZX4o1E4JshtJrWb8Li-127">
          <mxGeometry width="50" height="50" relative="1" as="geometry">
            <mxPoint x="580" y="605" as="sourcePoint" />
            <mxPoint x="489.9999999999998" y="415" as="targetPoint" />
          </mxGeometry>
        </mxCell>
        <mxCell id="LNZX4o1E4JshtJrWb8Li-135" value="" style="ellipse;whiteSpace=wrap;html=1;aspect=fixed;fontFamily=Comic Sans MS;labelBackgroundColor=#000000;fillColor=#000000;sketch=1;" vertex="1" parent="1">
          <mxGeometry x="695" y="400" width="10" height="10" as="geometry" />
        </mxCell>
        <mxCell id="LNZX4o1E4JshtJrWb8Li-136" value="node *head" style="text;html=1;strokeColor=none;fillColor=none;align=center;verticalAlign=middle;whiteSpace=wrap;rounded=0;labelBackgroundColor=none;sketch=1;fontFamily=Comic Sans MS;" vertex="1" parent="1">
          <mxGeometry x="20" y="365" width="80" height="15" as="geometry" />
        </mxCell>
        <mxCell id="LNZX4o1E4JshtJrWb8Li-137" value="" style="rounded=0;whiteSpace=wrap;html=1;sketch=1;fontFamily=Comic Sans MS;" vertex="1" parent="1">
          <mxGeometry x="40" y="385" width="40" height="40" as="geometry" />
        </mxCell>
        <mxCell id="LNZX4o1E4JshtJrWb8Li-138" value="" style="ellipse;whiteSpace=wrap;html=1;aspect=fixed;fontFamily=Comic Sans MS;labelBackgroundColor=#000000;fillColor=#000000;sketch=1;" vertex="1" parent="1">
          <mxGeometry x="56" y="400" width="10" height="10" as="geometry" />
        </mxCell>
        <mxCell id="LNZX4o1E4JshtJrWb8Li-139" value="" style="endArrow=classic;html=1;rounded=0;sketch=1;fontFamily=Comic Sans MS;" edge="1" parent="1" source="LNZX4o1E4JshtJrWb8Li-138">
          <mxGeometry width="50" height="50" relative="1" as="geometry">
            <mxPoint x="250" y="595" as="sourcePoint" />
            <mxPoint x="160" y="405" as="targetPoint" />
          </mxGeometry>
        </mxCell>
        <mxCell id="LNZX4o1E4JshtJrWb8Li-140" value="" style="rounded=0;whiteSpace=wrap;html=1;sketch=1;fontFamily=Comic Sans MS;strokeColor=#FF3333;strokeWidth=3;" vertex="1" parent="1">
          <mxGeometry x="40" y="505" width="40" height="40" as="geometry" />
        </mxCell>
        <mxCell id="LNZX4o1E4JshtJrWb8Li-141" value="" style="ellipse;whiteSpace=wrap;html=1;aspect=fixed;fontFamily=Comic Sans MS;labelBackgroundColor=#000000;fillColor=#000000;sketch=1;strokeColor=#FF3333;strokeWidth=3;" vertex="1" parent="1">
          <mxGeometry x="56" y="520" width="10" height="10" as="geometry" />
        </mxCell>
        <mxCell id="LNZX4o1E4JshtJrWb8Li-142" value="" style="edgeStyle=orthogonalEdgeStyle;rounded=0;sketch=1;orthogonalLoop=1;jettySize=auto;html=1;fontFamily=Comic Sans MS;exitX=0.5;exitY=0;exitDx=0;exitDy=0;entryX=0.5;entryY=1;entryDx=0;entryDy=0;strokeColor=#FF3333;strokeWidth=3;" edge="1" parent="1" source="LNZX4o1E4JshtJrWb8Li-141" target="LNZX4o1E4JshtJrWb8Li-137">
          <mxGeometry relative="1" as="geometry" />
        </mxCell>
        <mxCell id="LNZX4o1E4JshtJrWb8Li-143" value="&lt;font size=&quot;1&quot; color=&quot;#ff3333&quot;&gt;&lt;b style=&quot;font-size: 18px;&quot;&gt;p&lt;/b&gt;&lt;/font&gt;" style="text;html=1;strokeColor=none;fillColor=none;align=left;verticalAlign=middle;whiteSpace=wrap;rounded=0;labelBackgroundColor=none;sketch=1;fontFamily=Comic Sans MS;" vertex="1" parent="1">
          <mxGeometry x="56" y="545" width="24" height="30" as="geometry" />
        </mxCell>
        <mxCell id="LNZX4o1E4JshtJrWb8Li-144" value="&lt;font size=&quot;1&quot; color=&quot;#ff3333&quot;&gt;&lt;b style=&quot;font-size: 18px;&quot;&gt;p&lt;/b&gt;&lt;/font&gt;" style="text;html=1;strokeColor=none;fillColor=none;align=left;verticalAlign=middle;whiteSpace=wrap;rounded=0;labelBackgroundColor=none;sketch=1;fontFamily=Comic Sans MS;" vertex="1" parent="1">
          <mxGeometry x="49" y="250" width="24" height="30" as="geometry" />
        </mxCell>
        <mxCell id="LNZX4o1E4JshtJrWb8Li-145" value="&lt;font size=&quot;1&quot; color=&quot;#ff3333&quot;&gt;&lt;b style=&quot;font-size: 18px;&quot;&gt;p&lt;/b&gt;&lt;/font&gt;" style="text;html=1;strokeColor=none;fillColor=none;align=left;verticalAlign=middle;whiteSpace=wrap;rounded=0;labelBackgroundColor=none;sketch=1;fontFamily=Comic Sans MS;" vertex="1" parent="1">
          <mxGeometry x="166" y="495" width="24" height="30" as="geometry" />
        </mxCell>
        <mxCell id="LNZX4o1E4JshtJrWb8Li-146" value="first" style="text;html=1;strokeColor=none;fillColor=none;align=center;verticalAlign=middle;whiteSpace=wrap;rounded=0;labelBackgroundColor=none;sketch=1;fontFamily=Comic Sans MS;" vertex="1" parent="1">
          <mxGeometry x="141" y="552.5" width="80" height="15" as="geometry" />
        </mxCell>
        <mxCell id="LNZX4o1E4JshtJrWb8Li-147" value="" style="rounded=0;whiteSpace=wrap;html=1;sketch=1;fontFamily=Comic Sans MS;" vertex="1" parent="1">
          <mxGeometry x="160" y="505" width="40" height="40" as="geometry" />
        </mxCell>
        <mxCell id="LNZX4o1E4JshtJrWb8Li-148" value="" style="ellipse;whiteSpace=wrap;html=1;aspect=fixed;fontFamily=Comic Sans MS;labelBackgroundColor=#000000;fillColor=#000000;sketch=1;" vertex="1" parent="1">
          <mxGeometry x="176" y="520" width="10" height="10" as="geometry" />
        </mxCell>
        <mxCell id="LNZX4o1E4JshtJrWb8Li-149" value="" style="endArrow=classic;html=1;rounded=0;sketch=1;fontFamily=Comic Sans MS;entryX=0.5;entryY=1;entryDx=0;entryDy=0;" edge="1" parent="1" source="LNZX4o1E4JshtJrWb8Li-148" target="LNZX4o1E4JshtJrWb8Li-121">
          <mxGeometry width="50" height="50" relative="1" as="geometry">
            <mxPoint x="370" y="715" as="sourcePoint" />
            <mxPoint x="280" y="525" as="targetPoint" />
          </mxGeometry>
        </mxCell>
        <mxCell id="LNZX4o1E4JshtJrWb8Li-150" value="&lt;font size=&quot;1&quot; color=&quot;#ff3333&quot;&gt;&lt;b style=&quot;font-size: 18px;&quot;&gt;p&lt;/b&gt;&lt;/font&gt;" style="text;html=1;strokeColor=none;fillColor=none;align=left;verticalAlign=middle;whiteSpace=wrap;rounded=0;labelBackgroundColor=none;sketch=1;fontFamily=Comic Sans MS;" vertex="1" parent="1">
          <mxGeometry x="326" y="495" width="24" height="30" as="geometry" />
        </mxCell>
        <mxCell id="LNZX4o1E4JshtJrWb8Li-151" value="" style="rounded=0;whiteSpace=wrap;html=1;sketch=1;fontFamily=Comic Sans MS;" vertex="1" parent="1">
          <mxGeometry x="320" y="505" width="40" height="40" as="geometry" />
        </mxCell>
        <mxCell id="LNZX4o1E4JshtJrWb8Li-152" value="" style="ellipse;whiteSpace=wrap;html=1;aspect=fixed;fontFamily=Comic Sans MS;labelBackgroundColor=#000000;fillColor=#000000;sketch=1;" vertex="1" parent="1">
          <mxGeometry x="336" y="520" width="10" height="10" as="geometry" />
        </mxCell>
        <mxCell id="LNZX4o1E4JshtJrWb8Li-153" value="" style="endArrow=classic;html=1;rounded=0;sketch=1;fontFamily=Comic Sans MS;entryX=0.5;entryY=1;entryDx=0;entryDy=0;" edge="1" parent="1" source="LNZX4o1E4JshtJrWb8Li-152">
          <mxGeometry width="50" height="50" relative="1" as="geometry">
            <mxPoint x="530" y="715" as="sourcePoint" />
            <mxPoint x="340" y="425" as="targetPoint" />
          </mxGeometry>
        </mxCell>
        <mxCell id="LNZX4o1E4JshtJrWb8Li-158" value="second" style="text;html=1;strokeColor=none;fillColor=none;align=center;verticalAlign=middle;whiteSpace=wrap;rounded=0;labelBackgroundColor=none;sketch=1;fontFamily=Comic Sans MS;" vertex="1" parent="1">
          <mxGeometry x="301" y="552.5" width="80" height="15" as="geometry" />
        </mxCell>
        <mxCell id="LNZX4o1E4JshtJrWb8Li-160" value="*p = second;&lt;br&gt;first-&amp;gt;next = second-&amp;gt;next;&lt;br&gt;second-&amp;gt;next = first;" style="text;html=1;strokeColor=none;fillColor=none;align=left;verticalAlign=middle;whiteSpace=wrap;rounded=0;labelBackgroundColor=none;sketch=1;fontFamily=Comic Sans MS;fontSize=18;fontColor=#000000;" vertex="1" parent="1">
          <mxGeometry x="-299" y="865" width="364" height="80" as="geometry" />
        </mxCell>
        <mxCell id="LNZX4o1E4JshtJrWb8Li-161" value="1" style="rounded=0;whiteSpace=wrap;html=1;sketch=1;fontFamily=Comic Sans MS;" vertex="1" parent="1">
          <mxGeometry x="135" y="1218.96" width="40" height="40" as="geometry" />
        </mxCell>
        <mxCell id="LNZX4o1E4JshtJrWb8Li-162" value="" style="rounded=0;whiteSpace=wrap;html=1;sketch=1;fontFamily=Comic Sans MS;strokeColor=#FF3333;strokeWidth=3;" vertex="1" parent="1">
          <mxGeometry x="175" y="1218.96" width="40" height="40" as="geometry" />
        </mxCell>
        <mxCell id="LNZX4o1E4JshtJrWb8Li-163" value="2" style="rounded=0;whiteSpace=wrap;html=1;sketch=1;fontFamily=Comic Sans MS;" vertex="1" parent="1">
          <mxGeometry x="295" y="1218.96" width="40" height="40" as="geometry" />
        </mxCell>
        <mxCell id="LNZX4o1E4JshtJrWb8Li-164" value="" style="rounded=0;whiteSpace=wrap;html=1;sketch=1;fontFamily=Comic Sans MS;strokeColor=#000000;strokeWidth=1;" vertex="1" parent="1">
          <mxGeometry x="335" y="1218.96" width="40" height="40" as="geometry" />
        </mxCell>
        <mxCell id="LNZX4o1E4JshtJrWb8Li-165" value="3" style="rounded=0;whiteSpace=wrap;html=1;sketch=1;fontFamily=Comic Sans MS;" vertex="1" parent="1">
          <mxGeometry x="455" y="1218.96" width="40" height="40" as="geometry" />
        </mxCell>
        <mxCell id="LNZX4o1E4JshtJrWb8Li-166" value="" style="rounded=0;whiteSpace=wrap;html=1;sketch=1;fontFamily=Comic Sans MS;" vertex="1" parent="1">
          <mxGeometry x="495" y="1218.96" width="40" height="40" as="geometry" />
        </mxCell>
        <mxCell id="LNZX4o1E4JshtJrWb8Li-167" value="4" style="rounded=0;whiteSpace=wrap;html=1;sketch=1;fontFamily=Comic Sans MS;" vertex="1" parent="1">
          <mxGeometry x="615" y="1218.96" width="40" height="40" as="geometry" />
        </mxCell>
        <mxCell id="LNZX4o1E4JshtJrWb8Li-168" value="" style="rounded=0;whiteSpace=wrap;html=1;sketch=1;fontFamily=Comic Sans MS;" vertex="1" parent="1">
          <mxGeometry x="655" y="1218.96" width="40" height="40" as="geometry" />
        </mxCell>
        <mxCell id="LNZX4o1E4JshtJrWb8Li-169" value="" style="ellipse;whiteSpace=wrap;html=1;aspect=fixed;fontFamily=Comic Sans MS;labelBackgroundColor=#000000;fillColor=#000000;sketch=1;" vertex="1" parent="1">
          <mxGeometry x="191" y="1233.96" width="10" height="10" as="geometry" />
        </mxCell>
        <mxCell id="LNZX4o1E4JshtJrWb8Li-170" value="" style="endArrow=classic;html=1;rounded=0;sketch=1;fontFamily=Comic Sans MS;edgeStyle=orthogonalEdgeStyle;entryX=0.5;entryY=0;entryDx=0;entryDy=0;" edge="1" parent="1" source="LNZX4o1E4JshtJrWb8Li-169" target="LNZX4o1E4JshtJrWb8Li-165">
          <mxGeometry width="50" height="50" relative="1" as="geometry">
            <mxPoint x="385" y="1428.96" as="sourcePoint" />
            <mxPoint x="455" y="1238.96" as="targetPoint" />
            <Array as="points">
              <mxPoint x="196" y="1168.96" />
              <mxPoint x="475" y="1168.96" />
            </Array>
          </mxGeometry>
        </mxCell>
        <mxCell id="LNZX4o1E4JshtJrWb8Li-171" value="" style="ellipse;whiteSpace=wrap;html=1;aspect=fixed;fontFamily=Comic Sans MS;labelBackgroundColor=#000000;fillColor=#000000;sketch=1;" vertex="1" parent="1">
          <mxGeometry x="351" y="1233.96" width="10" height="10" as="geometry" />
        </mxCell>
        <mxCell id="LNZX4o1E4JshtJrWb8Li-172" value="" style="endArrow=classic;html=1;rounded=0;sketch=1;fontFamily=Comic Sans MS;edgeStyle=orthogonalEdgeStyle;entryX=0.5;entryY=1;entryDx=0;entryDy=0;" edge="1" parent="1" source="LNZX4o1E4JshtJrWb8Li-171" target="LNZX4o1E4JshtJrWb8Li-162">
          <mxGeometry width="50" height="50" relative="1" as="geometry">
            <mxPoint x="545" y="1428.96" as="sourcePoint" />
            <mxPoint x="185" y="1348.96" as="targetPoint" />
            <Array as="points">
              <mxPoint x="356" y="1328.96" />
              <mxPoint x="195" y="1328.96" />
            </Array>
          </mxGeometry>
        </mxCell>
        <mxCell id="LNZX4o1E4JshtJrWb8Li-173" value="" style="ellipse;whiteSpace=wrap;html=1;aspect=fixed;fontFamily=Comic Sans MS;labelBackgroundColor=#000000;fillColor=#000000;sketch=1;" vertex="1" parent="1">
          <mxGeometry x="510" y="1233.96" width="10" height="10" as="geometry" />
        </mxCell>
        <mxCell id="LNZX4o1E4JshtJrWb8Li-174" value="" style="endArrow=classic;html=1;rounded=0;sketch=1;fontFamily=Comic Sans MS;" edge="1" parent="1" source="LNZX4o1E4JshtJrWb8Li-173" target="LNZX4o1E4JshtJrWb8Li-167">
          <mxGeometry width="50" height="50" relative="1" as="geometry">
            <mxPoint x="555" y="1438.96" as="sourcePoint" />
            <mxPoint x="464.9999999999998" y="1248.96" as="targetPoint" />
          </mxGeometry>
        </mxCell>
        <mxCell id="LNZX4o1E4JshtJrWb8Li-175" value="" style="ellipse;whiteSpace=wrap;html=1;aspect=fixed;fontFamily=Comic Sans MS;labelBackgroundColor=#000000;fillColor=#000000;sketch=1;" vertex="1" parent="1">
          <mxGeometry x="670" y="1233.96" width="10" height="10" as="geometry" />
        </mxCell>
        <mxCell id="LNZX4o1E4JshtJrWb8Li-176" value="head" style="text;html=1;strokeColor=none;fillColor=none;align=center;verticalAlign=middle;whiteSpace=wrap;rounded=0;labelBackgroundColor=none;sketch=1;fontFamily=Comic Sans MS;" vertex="1" parent="1">
          <mxGeometry x="6" y="1269.96" width="60" height="15" as="geometry" />
        </mxCell>
        <mxCell id="LNZX4o1E4JshtJrWb8Li-177" value="" style="rounded=0;whiteSpace=wrap;html=1;sketch=1;fontFamily=Comic Sans MS;" vertex="1" parent="1">
          <mxGeometry x="15" y="1218.96" width="40" height="40" as="geometry" />
        </mxCell>
        <mxCell id="LNZX4o1E4JshtJrWb8Li-178" value="" style="ellipse;whiteSpace=wrap;html=1;aspect=fixed;fontFamily=Comic Sans MS;labelBackgroundColor=#000000;fillColor=#000000;sketch=1;" vertex="1" parent="1">
          <mxGeometry x="31" y="1233.96" width="10" height="10" as="geometry" />
        </mxCell>
        <mxCell id="LNZX4o1E4JshtJrWb8Li-179" value="" style="endArrow=classic;html=1;rounded=0;sketch=1;fontFamily=Comic Sans MS;entryX=0.5;entryY=1;entryDx=0;entryDy=0;edgeStyle=orthogonalEdgeStyle;" edge="1" parent="1" source="LNZX4o1E4JshtJrWb8Li-178" target="LNZX4o1E4JshtJrWb8Li-163">
          <mxGeometry width="50" height="50" relative="1" as="geometry">
            <mxPoint x="225" y="1428.96" as="sourcePoint" />
            <mxPoint x="135" y="1238.96" as="targetPoint" />
            <Array as="points">
              <mxPoint x="95" y="1238.96" />
              <mxPoint x="95" y="1358.96" />
              <mxPoint x="315" y="1358.96" />
            </Array>
          </mxGeometry>
        </mxCell>
        <mxCell id="LNZX4o1E4JshtJrWb8Li-180" value="" style="rounded=0;whiteSpace=wrap;html=1;sketch=1;fontFamily=Comic Sans MS;strokeColor=#FF3333;strokeWidth=3;" vertex="1" parent="1">
          <mxGeometry x="336" y="1470" width="40" height="40" as="geometry" />
        </mxCell>
        <mxCell id="LNZX4o1E4JshtJrWb8Li-181" value="" style="ellipse;whiteSpace=wrap;html=1;aspect=fixed;fontFamily=Comic Sans MS;labelBackgroundColor=#000000;fillColor=#000000;sketch=1;strokeColor=#FF3333;strokeWidth=3;" vertex="1" parent="1">
          <mxGeometry x="352" y="1485" width="10" height="10" as="geometry" />
        </mxCell>
        <mxCell id="LNZX4o1E4JshtJrWb8Li-182" value="" style="edgeStyle=orthogonalEdgeStyle;rounded=0;sketch=1;orthogonalLoop=1;jettySize=auto;html=1;fontFamily=Comic Sans MS;strokeColor=#FF3333;strokeWidth=3;exitX=0;exitY=1;exitDx=0;exitDy=0;" edge="1" parent="1" source="LNZX4o1E4JshtJrWb8Li-181" target="LNZX4o1E4JshtJrWb8Li-162">
          <mxGeometry relative="1" as="geometry">
            <mxPoint x="356" y="1390" as="targetPoint" />
            <mxPoint x="290" y="1490" as="sourcePoint" />
            <Array as="points">
              <mxPoint x="354" y="1485" />
              <mxPoint x="215" y="1485" />
            </Array>
          </mxGeometry>
        </mxCell>
        <mxCell id="LNZX4o1E4JshtJrWb8Li-183" value="&lt;font size=&quot;1&quot; color=&quot;#ff3333&quot;&gt;&lt;b style=&quot;font-size: 18px;&quot;&gt;p&lt;/b&gt;&lt;/font&gt;" style="text;html=1;strokeColor=none;fillColor=none;align=left;verticalAlign=middle;whiteSpace=wrap;rounded=0;labelBackgroundColor=none;sketch=1;fontFamily=Comic Sans MS;" vertex="1" parent="1">
          <mxGeometry x="352" y="1510" width="24" height="30" as="geometry" />
        </mxCell>
        <mxCell id="LNZX4o1E4JshtJrWb8Li-184" value="p = &amp;amp;first-&amp;gt;next" style="text;html=1;strokeColor=none;fillColor=none;align=left;verticalAlign=middle;whiteSpace=wrap;rounded=0;labelBackgroundColor=none;sketch=1;fontFamily=Comic Sans MS;fontSize=18;fontColor=#000000;" vertex="1" parent="1">
          <mxGeometry x="96" y="1495" width="164" height="80" as="geometry" />
        </mxCell>
      </root>
    </mxGraphModel>
  </diagram>
</mxfile>
